#!OML:ASF F:\VICON\USERDATA\INSTALL\rory3\rory3.ASF
:FULLY-SPECIFIED
:DEGREES
106
root 0.40673095182637725 17.743085119736104 50.88280054711161 -3.958000051000081 0.00028491625956206246 -1.2502595103238408
lfemur -1.8987945650242972 -3.0040719173607515 -24.967087750920705
ltibia 32.82938552895048
lfoot -7.750910850067133 -3.4770637657509735
ltoes -8.578181495220697
rfemur -20.81315692506423 0.3298212980960382 22.89459731401847
rtibia 39.50528741266488
rfoot -5.619910503446514 -7.980909967979497
rtoes 3.0151730826048917
lowerback 11.22775427972122 0.4699478520916692 -0.46813359828227963
upperback 0.3660583404906321 0.4810632474020808 1.3636061039244711
thorax -5.9228553108751605 0.4383072517997849 1.7103767200361886
lowerneck -16.588747364771148 -3.184333699746906 -2.1084395301121326
upperneck 20.45264828864465 -4.58985997064124 2.526007569401915
head 9.314160698599904 -2.0554990370010424 0.525904273804594
lclavicle 3.007644532109382e-16 5.650158596774332e-17
lhumerus -30.78854943214948 4.963323258851687 80.26443097471315
lradius 25.010547780181327
lwrist 7.283817890963552
lhand -29.28051362385873 19.58319485863017
lfingers 7.125020000000001
lthumb -2.4786005601336605 50.25986037593401
rclavicle 2.993985447163357e-16 5.552075401260985e-17
rhumerus -30.66139099639732 -20.48882572138035 -78.20851337525495
rradius 28.077606973185024
rwrist 3.333211088962589
rhand -18.156828787115614 23.010246705061576
rfingers 7.125020000000001
rthumb 7.875387988023833 -7.2685001117657
107
root 0.3943064692965982 17.726062138551168 51.74011978444558 -3.6757565681749034 0.34361486316966483 -1.004899752787686
lfemur 0.6332827507805829 -2.9275010895840796 -25.476550763645466
ltibia 31.737870301076374
lfoot -7.312699061799863 -3.1240490875614273
ltoes -7.714303096029076
rfemur -22.35327558586212 0.6376238383187147 22.49434187357899
rtibia 39.40951755914269
rfoot -6.175619994233558 -8.161542230536199
rtoes 3.5006378895734582
lowerback 11.230174620955736 0.31249405259014795 -0.7616028716085561
upperback 0.3731726848210296 0.10353241018758541 1.3848361776869567
thorax -5.8806351177299145 0.363995345247485 1.991768503202104
lowerneck -16.580173492684235 -3.199551695436254 -2.072033074880114
upperneck 20.452615924978325 -4.5800327732920865 2.5466536828614457
head 9.30678208149016 -2.047729693888188 0.5157316173888848
lclavicle 3.007644532109382e-16 5.650158596774332e-17
lhumerus -29.12728048915408 3.4851213458158394 80.63887980469813
lradius 25.25714445931204
lwrist 7.197802711667212
lhand -29.16600427362799 19.98098089264611
lfingers 7.125020000000001
lthumb -2.4135008953230326 50.43115186884195
rclavicle 2.993985447163357e-16 5.552075401260985e-17
rhumerus -31.52942704454746 -20.482979952452066 -77.91660300223472
rradius 28.05229166035332
rwrist 3.4155202906973936
rhand -18.129961934321283 23.08523987634816
rfingers 7.125020000000001
rthumb 7.880164018181207 -7.229466521277137
108
root 0.3637460817496729 17.696907379523534 51.58437005973098 -3.472814343372375 0.49939736871316787 -0.9738823362801263
lfemur 3.391553871794412 -2.6762465609548522 -25.62608390498788
ltibia 30.178094351076
lfoot -6.364803636897173 -2.9441134746790976
ltoes -7.618817678320671
rfemur -23.70539758676258 1.0006121236436054 22.205407209140816
rtibia 39.35485580063384
rfoot -6.628347481763826 -8.44406282394008
rtoes 2.9246377842044344
lowerback 11.18980974291708 0.14416855220833683 -1.0850100557136406
upperback 0.3659830312041853 -0.28243023732773287 1.395211994701391
thorax -5.8272755957492395 0.31224817591270954 2.2738848262037643
lowerneck -16.569910971599082 -3.2162698064174706 -2.0437409023860114
upperneck 20.420904496620835 -4.596899122853919 2.529845370119186
head 9.32382868068948 -2.0293480251046794 0.5245361924594468
lclavicle 3.007644532109382e-16 5.650158596774332e-17
lhumerus -27.7894486048956 1.7859650759490644 80.77080084958006
lradius 25.272844018265722
lwrist 7.326206986583239
lhand -29.231392715861254 19.688776371325336
lfingers 7.125020000000001
lthumb -2.4260115486928497 50.349754760249574
rclavicle 2.993985447163357e-16 5.552075401260985e-17
rhumerus -32.3085288755112 -20.54702166724614 -77.62228942114045
rradius 28.03952194159602
rwrist 3.47342035413171
rhand -18.122527838829214 23.112186215693683
rfingers 7.125020000000001
rthumb 7.885944149925817 -7.1957814749032165
109
root 0.33908777020579656 17.671495463299124 52.08282307321407 -3.292332624733734 0.659254639306869 -0.8997997748044129
lfemur 6.8596176331598295 -2.30590336739271 -25.66073340064245
ltibia 28.25094730428746
lfoot -6.264515597678111 -3.138343988126327
ltoes -7.381355073957629
rfemur -24.026192282277393 1.4165171016261284 22.26503994197655
rtibia 39.3370846466456
rfoot -6.658874371652365 -8.58212919867828
rtoes 2.3024385545192567
lowerback 11.142326506750125 0.022328028567520725 -1.2248143008300245
upperback 0.3528710274699741 -0.5831488783176799 1.431198794513243
thorax -5.789683945270282 0.22803787421910382 2.4134324987403932
lowerneck -16.563658170209575 -3.2315551791469135 -2.016183553339294
upperneck 20.367384993531783 -4.63152660013553 2.482740318378972
head 9.325241320552593 -2.0212775160019714 0.5200731867330481
lclavicle 3.007644532109382e-16 5.650158596774332e-17
lhumerus -26.46307508603157 0.43292919912875805 80.8153538340708
lradius 25.10923453355247
lwrist 7.219488347292478
lhand -29.125520154123425 20.04850054736977
lfingers 7.125020000000001
lthumb -2.3754710638688192 50.49780439192901
rclavicle 2.993985447163357e-16 5.552075401260985e-17
rhumerus -32.98800248129902 -20.771796069611003 -77.23355066460948
rradius 27.97935403733619
rwrist 3.543223027163369
rhand -18.094846298124732 23.15952289122036
rfingers 7.125020000000001
rthumb 7.900833294212935 -7.159924116174513
110
root 0.30131487186472083 17.64315758179625 51.66863267550295 -3.2289756951363513 0.6496681261784601 -1.0552559649113962
lfemur 9.997312435162662 -2.3752373377809093 -25.73902676897931
ltibia 26.6981832839762
lfoot -6.7487833847002925 -3.5162565087540685
ltoes -6.719114229291244
rfemur -23.439977142189747 1.761745528005263 22.84597054869069
rtibia 39.322883432413754
rfoot -6.338612838233906 -8.484293367494292
rtoes 1.9284943807154802
lowerback 11.057697103327609 -0.11221025977188179 -1.4046271839759645
upperback 0.3349386672966672 -0.7575186275858188 1.4960867533083047
thorax -5.742862920531432 0.17043005014713491 2.5692470278252553
lowerneck -16.558817628271843 -3.2477456922188437 -1.9925723332087513
upperneck 20.342998492440145 -4.631868121448525 2.490774062263533
head 9.310272565572197 -2.024156935678 0.5057108157260651
lclavicle 3.007644532109382e-16 5.650158596774332e-17
lhumerus -25.346427126446933 -0.6327730963534033 80.7831745835709
lradius 24.914070547184522
lwrist 7.343926695174926
lhand -29.205527476323514 19.71486484376412
lfingers 7.125020000000001
lthumb -2.3766319407281817 50.45107664458762
rclavicle 2.993985447163357e-16 5.552075401260985e-17
rhumerus -33.6479215298579 -21.281081613938213 -76.74850030721522
rradius 27.86292853439076
rwrist 3.68276903949571
rhand -18.10678668316427 23.134721630287064
rfingers 7.125020000000001
rthumb 7.943058618079922 -7.065161220615115
111
root 0.27821897245861404 17.630820436581434 51.93717026002988 -3.190476521297839 0.6770038238089505 -1.177989544944345
lfemur 12.100248689646406 -2.911601174484955 -25.77723293594771
ltibia 26.419030835882456
lfoot -6.127828029406868 -2.803646522526217
ltoes -6.767831135792918
rfemur -22.630032787342873 2.319468788901697 23.335039999229448
rtibia 39.80496180046531
rfoot -5.784369041052386 -8.270980067361586
rtoes 1.7316231558965345
lowerback 11.0067120944963 -0.15848117216632476 -1.296380048426802
upperback 0.30837442522591724 -0.8444970682692239 1.5820745389176891
thorax -5.719508269244471 0.10201584471720973 2.591307950974974
lowerneck -16.57343396093892 -3.2796074041959273 -1.996776077512982
upperneck 20.321804872091036 -4.620674443633588 2.4765244366347785
head 9.308575496715207 -2.023895593272517 0.5029128221623369
lclavicle 3.007644532109382e-16 5.650158596774332e-17
lhumerus -24.42270256944552 -1.2540689263917408 80.77583609087016
lradius 24.901202408081048
lwrist 7.158256416600286
lhand -29.107235093803407 20.06323225392117
lfingers 7.125020000000001
lthumb -2.3131805270979777 50.62357335736433
rclavicle 2.993985447163357e-16 5.552075401260985e-17
rhumerus -34.34921826635483 -22.05322665122446 -76.15865506841061
rradius 27.80539022719893
rwrist 3.911829653043793
rhand -18.08120358629098 23.17473228328113
rfingers 7.125020000000001
rthumb 7.997754349505971 -6.9393707402486084
112
root 0.25104636748560744 17.62582222134614 51.37379686191698 -3.2482757550033323 0.5806245356025097 -1.5218671452680863
lfemur 13.461153165514485 -3.7394419824210807 -25.527264839912867
ltibia 27.494351545000086
lfoot -5.748842222799608 -2.926309444978709
ltoes -7.305715401328798
rfemur -22.013082796886152 2.5664635521869084 23.93379070520534
rtibia 40.27595763607969
rfoot -5.538011513159428 -8.236611963307663
rtoes 1.894427547741449
lowerback 10.936690839229918 -0.19005360286427211 -1.184555903313483
upperback 0.28225235206396354 -0.8736674336645676 1.670219740240343
thorax -5.685081875755653 0.08372837564995927 2.726968194547592
lowerneck -16.577082138779044 -3.3041577500997805 -1.987324323524956
upperneck 20.33632709305225 -4.5885955717346345 2.5063173724986045
head 9.296456203859151 -2.033701922259298 0.48983919150421995
lclavicle 3.007644532109382e-16 5.650158596774332e-17
lhumerus -23.781122552150375 -1.5008692955078655 80.81203729274912
lradius 24.97140366498553
lwrist 7.185887433947425
lhand -29.193374181436084 19.7253882050351
lfingers 7.125020000000001
lthumb -2.3180376962925435 50.56434361556354
rclavicle 2.993985447163357e-16 5.552075401260985e-17
rhumerus -35.1118361129413 -23.019968962840128 -75.44757157328787
rradius 27.802472247619473
rwrist 4.152335287548504
rhand -18.06832151112871 23.20679266316335
rfingers 7.125020000000001
rthumb 8.01745267318375 -6.874116316514766
113
root 0.24344326773520786 17.640075525452126 51.5798710536273 -3.299457268519463 0.5454387508001741 -1.812064683850176
lfemur 14.635812233464787 -4.8611910015138955 -24.863605639191743
ltibia 29.97601377440993
lfoot -5.1101351593299675 -3.2710143105356986
ltoes -7.8010962204627745
rfemur -21.01938540291313 2.75256200203575 24.711624180401543
rtibia 40.1516460162316
rfoot -5.671524629951838 -8.292000116028161
rtoes 2.337551762475785
lowerback 10.859663586447386 -0.22231765928409328 -1.0360096802843046
upperback 0.25913612449648105 -0.7454647226631548 1.806372087279767
thorax -5.6826840754573595 0.0506653200415966 2.6354905285853594
lowerneck -16.562600551188325 -3.3131284748916006 -1.9598664459536268
upperneck 20.34747217211015 -4.559597887048535 2.5059393784578052
head 9.306884993267166 -2.0306882511810183 0.49442027893431784
lclavicle 3.007644532109382e-16 5.650158596774332e-17
lhumerus -23.428581588806768 -1.3806087770178777 80.95961655110438
lradius 25.11850882928927
lwrist 7.117551933650298
lhand -29.10529068049101 20.062605762200462
lfingers 7.125020000000001
lthumb -2.290924271924139 50.647418754234614
rclavicle 2.993985447163357e-16 5.552075401260985e-17
rhumerus -35.86902002864616 -24.078551074187935 -74.58903323672303
rradius 27.79877901462201
rwrist 4.424527871838231
rhand -18.0162480757604 23.32091980060546
rfingers 7.125020000000001
rthumb 8.011904834493262 -6.888226218282588
